<?xml version="1.0" encoding="UTF-8" standalone="no"?>
<!-- Created with Inkscape (http://www.inkscape.org/) -->

<svg
   width="256mm"
   height="256mm"
   viewBox="0 0 256 256"
   version="1.1"
   id="svg5"
   inkscape:version="1.1.2 (0a00cf5339, 2022-02-04)"
   sodipodi:docname="logo-clip.svg"
   inkscape:export-filename="/home/joel/kDrive/iridax/logo.png"
   inkscape:export-xdpi="25.4"
   inkscape:export-ydpi="25.4"
   xmlns:inkscape="http://www.inkscape.org/namespaces/inkscape"
   xmlns:sodipodi="http://sodipodi.sourceforge.net/DTD/sodipodi-0.dtd"
   xmlns="http://www.w3.org/2000/svg"
   xmlns:svg="http://www.w3.org/2000/svg">
  <sodipodi:namedview
     id="namedview7"
     pagecolor="#ffffff"
     bordercolor="#000000"
     borderopacity="0.25"
     inkscape:showpageshadow="2"
     inkscape:pageopacity="0.0"
     inkscape:pagecheckerboard="0"
     inkscape:deskcolor="#d1d1d1"
     inkscape:document-units="mm"
     showgrid="false"
     inkscape:zoom="0.70710682"
     inkscape:cx="432.74933"
     inkscape:cy="535.98691"
     inkscape:window-width="1920"
     inkscape:window-height="1067"
     inkscape:window-x="0"
     inkscape:window-y="32"
     inkscape:window-maximized="1"
     inkscape:current-layer="svg5"
     inkscape:pageshadow="2" />
  <defs
     id="defs2" />
  <g
     id="layer2"
     inkscape:label="Calque 2"
     style="display:inline"
     inkscape:groupmode="layer">
    <rect
       style="display:inline;fill:#363636;fill-opacity:1;stroke-width:4.23332"
       id="rect17981"
       width="256"
       height="256"
       x="0"
       y="-8.8817842e-16"
       inkscape:export-filename="/home/joel/kDrive/iridax/logo.png"
       inkscape:export-xdpi="406.39999"
       inkscape:export-ydpi="406.39999" />
  </g>
  <g
     inkscape:label="Calque 1"
     id="layer1"
     transform="translate(8,8)">
    <g
       id="g18671"
       transform="matrix(16,0,0,16,-856.52947,-1583.7688)">
      <path
         id="text236-6"
         style="font-style:normal;font-variant:normal;font-weight:normal;font-stretch:normal;font-size:22.5778px;font-family:'Monotype Corsiva';-inkscape-font-specification:'Monotype Corsiva';fill:#487700;fill-opacity:1;stroke:none;stroke-width:16"
         d="m 818.375,80.3125 c -34.22227,5.333069 -83.55552,8.90973 -148,10.6875 -68.88891,1.77789 -113.10068,3.777638 -132.65625,6 -19.55552,1.77789 -38.67713,5.1102 -57.34375,10 l -12.65625,36.65625 c 34.93438,-7.3362 65.51824,-11.45091 91.9375,-12.46875 l -21.48633,92.04688 c 18.22087,-7.34113 38.59272,-8.89974 58.5586,-4.28711 22.02251,5.08963 41.19221,17.14433 54.65429,34.18945 14.63511,-51.14415 24.31412,-81.24155 28.99219,-90.10547 7.11112,-12.44402 15.98964,-21.77739 26.65625,-28 16.44445,-9.33332 49.77779,-15.5768 100,-18.6875 z m -406.15625,682.49023 -7.3125,31.32227 c -2.46187,4.8207 -4.83313,8.70605 -7.1875,11.53125 -3.55578,4.44472 -8.46531,8.23244 -14.6875,11.34375 -25.33336,12.00014 -62.42356,21.78833 -111.3125,29.34375 l -7.65625,33.75 10.15625,-1.25 12.9375,-1.0625 -0.0312,0.125 c 40.70178,-5.91421 84.66724,-8.875 131.90625,-8.875 40.88893,0 76.67708,1.33312 107.34375,4 184.96294,3.67067 49.56867,-20.63491 -22,-40 5.20824,-21.55277 9.97583,-41.23266 14.75977,-60.98437 -0.77864,0.41451 -1.55839,0.82762 -2.36133,1.22265 -0.93282,0.45892 -1.88569,0.90404 -2.84961,1.33789 -17.92447,8.0225 -39.24111,10.3579 -60.02539,6.57422 -16.19456,-2.94745 -30.59622,-9.35725 -41.67969,-18.37891 z"
         transform="matrix(0.01653646,0,0,0.01653646,53.033092,98.48555)" />
      <path
         id="path18518"
         style="fill:#487700;fill-opacity:1;stroke:none;stroke-width:16px;stroke-linecap:butt;stroke-linejoin:miter;stroke-opacity:1"
         d="m 807.48633,766.86133 c -7.58592,-0.0431 -27.16042,2.41851 -59.11914,6.29101 -15.30473,1.85651 -47.26309,10.26703 -61.93164,21.46289 -28.446,21.7084 -51.29133,31.19312 -78.09961,34.41993 -68.78432,8.77455 -97.34058,-24.18863 -91.5625,-47.76563 l -25.17578,88.80859 c 111.66732,17.63921 147.74594,1.22783 190.02343,-32.56054 22.49357,-18.97444 34.40609,-33.06903 60.31055,-42.54688 56.09829,-20.52565 78.62829,-28.03517 65.55469,-28.10937 z"
         transform="matrix(0.01653646,0,0,0.01653646,53.033092,98.48555)" />
      <g
         id="g14975"
         transform="matrix(1.3264811,0,0,1.3264811,-20.117845,-32.740108)">
        <path
           id="path2347"
           style="fill:#487700;fill-opacity:1;stroke-width:25.6094"
           d="m 591.50391,93.914062 c -74.85451,0.320863 -136.40026,1.04383 -239.61914,20.765628 l -32.35547,-7.60547 -49.48633,15.22656 -31.4043,33.7832 -69.79687,32.56641 -19.65625,7.4043 0.47265,11.41797 25.27149,35.51172 10.41601,5.40624 61.85547,-13.80664 108.01172,-10.46875 38.83008,-23.59375 72.04101,-15.16601 c 46.7227,-7.57986 63.05575,14.72409 66.125,40.5332 4.06811,-1.97985 8.26194,-3.65564 12.55664,-5.02344 z"
           transform="matrix(0.01246641,0,0,0.01246641,55.146611,98.92765)"
           sodipodi:nodetypes="ccccccccccccccccc" />
        <g
           id="g921"
           transform="translate(-0.32513767,0.20710622)">
          <ellipse
             style="fill:#dedf79;fill-opacity:1;stroke-width:0.439564"
             id="path2401"
             ry="0.16060722"
             rx="0.33535668"
             cy="113.62486"
             cx="55.844765"
             transform="matrix(0.80647526,-0.19083756,0.03365297,0.82806328,10.414892,17.07461)" />
          <path
             id="path14210"
             style="fill:#487700;fill-opacity:1;stroke-width:0.215767"
             d="m 59.207659,100.37124 a 0.14680485,0.0317135 62.299456 0 0 -6.56e-4,0.006 0.14688235,0.03169677 58.40183 0 0 -0.0053,-0.002 l 0.0053,0.009 a 0.14680485,0.0317135 62.299456 0 0 0.05748,0.1455 0.14680485,0.0317135 62.299456 0 0 0.07785,0.0941 l 0.0013,0.003 a 0.14688235,0.03169677 58.40183 0 0 0.0013,-3.2e-4 0.14688235,0.03169677 58.40183 0 0 9.92e-4,-3.3e-4 0.14688235,0.03169677 58.40183 0 0 9.92e-4,-3.2e-4 0.14688235,0.03169677 58.40183 0 1 3.37e-4,-3.3e-4 0.14688235,0.03169677 58.40183 0 1 3.36e-4,-3.2e-4 0.14688235,0.03169677 58.40183 0 1 3.37e-4,-3.3e-4 0.14688235,0.03169677 58.40183 0 1 3.36e-4,-3.2e-4 0.14688235,0.03169677 58.40183 0 1 3.36e-4,-3.3e-4 0.14688235,0.03169677 58.40183 0 1 0,-3.2e-4 0.14680485,0.0317135 62.299456 0 0 3.37e-4,0 0.14688235,0.03169677 58.40183 0 0 3.36e-4,-3.3e-4 0.14680485,0.0317135 62.299456 0 0 9.92e-4,-6.5e-4 0.14680485,0.0317135 62.299456 0 0 3.37e-4,-3.3e-4 0.14680485,0.0317135 62.299456 0 0 3.36e-4,-3.2e-4 0.14680485,0.0317135 62.299456 0 0 3.36e-4,-6.5e-4 l -6.55e-4,-9.8e-4 a 0.14688235,0.03169677 58.40183 0 0 -0.04083,-0.11491 0.14688235,0.03169677 58.40183 0 0 -0.09592,-0.1237 z" />
        </g>
        <path
           style="fill:#487700;fill-opacity:1;stroke-width:0.0849705"
           d="m 57.738435,101.94085 c 0.12727,-0.0354 1.188263,-0.37305 0.544833,-0.27926 -0.329088,0.0479 -0.321825,0.45356 -0.10341,0.99899"
           id="path14238"
           sodipodi:nodetypes="csc" />
      </g>
    </g>
  </g>
  <g
     style="display:inline;fill:#487700;fill-opacity:1;stroke:#487700;stroke-width:2.83600943;stroke-miterlimit:4;stroke-dasharray:none;stroke-opacity:1"
     id="g1818"
     transform="matrix(0.45308216,-0.28299755,0.28299755,0.45308216,-98.364152,26.512062)">
    <g
       id="g1808"
       style="fill:#487700;fill-opacity:1;stroke:#487700;stroke-width:2.83600943;stroke-miterlimit:4;stroke-dasharray:none;stroke-opacity:1">
	<g
   id="g1806"
   style="fill:#487700;fill-opacity:1;stroke:#487700;stroke-width:2.83600943;stroke-miterlimit:4;stroke-dasharray:none;stroke-opacity:1">
		<path
   d="m 200.46484,501.60162 c -0.44269,0 -0.88857,-0.01 -1.33509,-0.0275 -8.29099,-0.34495 -16.20061,-3.87816 -22.27177,-9.94995 -6.07115,-6.07115 -9.60435,-13.98077 -9.94995,-22.27113 -0.3507,-8.44047 2.62866,-16.26129 8.38936,-22.02264 L 308.42591,314.20193 c 7.36089,-7.3609 17.37345,-11.16815 28.16853,-10.71907 10.65263,0.44269 20.82106,4.98903 28.6323,12.79964 7.81125,7.81188 12.35823,17.9803 12.79964,28.63294 0.44908,10.80275 -3.35753,20.80636 -10.71971,28.16853 L 266.98694,473.40498 c -1.8704,1.86977 -4.90343,1.87041 -6.77575,0 -1.87041,-1.87168 -1.87041,-4.9047 0,-6.77638 L 360.53157,366.30694 c 5.44448,-5.44386 8.2584,-12.89993 7.92111,-20.99417 -0.34303,-8.24436 -3.8954,-16.14823 -10.00233,-22.2558 -6.10629,-6.10693 -14.01016,-9.65802 -22.25452,-10.00105 -8.09359,-0.34049 -15.55095,2.47599 -20.99417,7.92048 L 182.07315,454.1062 c -8.04633,8.04504 -7.34493,21.83674 1.56059,30.74225 4.36684,4.36748 10.01127,6.90735 15.89398,7.15137 5.73323,0.22294 11.00589,-1.74648 14.84827,-5.59078 L 322.61494,378.17137 c 4.74118,-4.74117 4.27421,-12.92229 -1.0406,-18.2371 -2.62739,-2.62803 -6.01367,-4.1554 -9.53346,-4.30104 -3.37861,-0.13543 -6.46146,1.01888 -8.70365,3.26171 l -75.42889,75.43144 c -1.87169,1.86978 -4.90471,1.87041 -6.77575,0 -1.87169,-1.87168 -1.87169,-4.9047 0,-6.77575 l 75.42889,-75.43144 c 4.15986,-4.15987 9.78769,-6.32413 15.87737,-6.05966 5.92871,0.24594 11.57953,2.76729 15.90996,7.09963 9.0518,9.04988 9.51812,23.30982 1.04188,31.78797 l -108.23894,108.2383 c -5.45599,5.45536 -12.7594,8.41619 -20.68691,8.41619 z"
   id="path1804"
   style="fill:#487700;fill-opacity:1;stroke:#487700;stroke-width:2.83600943;stroke-miterlimit:4;stroke-dasharray:none;stroke-opacity:1" />

	</g>

</g>
  </g>
</svg>
